<svg width="32" height="26" viewBox="0 0 32 26" fill="none" xmlns="http://www.w3.org/2000/svg">
<g clip-path="url(#clip0)">
<path d="M18.8613 3.63369L29.724 12.4585L0.666687 12.4585C0.2985 12.4585 -4.62625e-07 12.701 -4.49549e-07 13.0002C-4.36472e-07 13.2993 0.2985 13.5419 0.666687 13.5419L29.724 13.5419L18.8613 22.3667C18.6055 22.5819 18.6129 22.9248 18.8777 23.1326C19.1361 23.3353 19.5456 23.3353 19.8039 23.1326L31.8039 13.3826C32.0646 13.1714 32.0651 12.8284 31.8051 12.6166C31.8047 12.6163 31.8043 12.6159 31.8039 12.6156L19.8039 2.86562C19.5391 2.65778 19.1171 2.66377 18.8612 2.87893C18.6117 3.08886 18.6117 3.42163 18.8612 3.63156L18.8613 3.63369Z" fill="white"/>
<path d="M32.0003 13.0006C32.0006 13.1443 31.9306 13.2823 31.8056 13.3841L19.8056 23.1341C19.5408 23.3419 19.1187 23.3359 18.8629 23.1208C18.6134 22.9108 18.6134 22.5781 18.8629 22.3682L30.3909 13.0006L18.8629 3.63413C18.6071 3.41897 18.6145 3.07604 18.8793 2.86819C19.1377 2.66542 19.5472 2.66542 19.8056 2.86819L31.8056 12.6182C31.9302 12.7197 32.0002 12.8572 32.0003 13.0006Z" fill="white"/>
<path d="M32 13.0008C32 13.2999 31.7015 13.5425 31.3333 13.5425L0.666687 13.5425C0.2985 13.5424 -1.06014e-08 13.2999 -2.36779e-08 13.0008C-3.67543e-08 12.7016 0.2985 12.4591 0.666687 12.4591L31.3334 12.4591C31.7015 12.4591 32 12.7016 32 13.0008Z" fill="white"/>
</g>
<defs>
<clipPath id="clip0">
<rect width="26" height="32" fill="white" transform="translate(0 26) rotate(-90)"/>
</clipPath>
</defs>
</svg>
