<svg width="14" height="20" viewBox="0 0 14 20" fill="none" xmlns="http://www.w3.org/2000/svg">
<path d="M6.83367 0C3.15773 0 0.166992 2.99074 0.166992 6.66668C0.166992 7.7702 0.442891 8.86434 0.967383 9.8348L6.4691 19.7852C6.54234 19.9178 6.68191 20 6.83367 20C6.98543 20 7.125 19.9178 7.19824 19.7852L12.702 9.83152C13.2245 8.86434 13.5003 7.77016 13.5003 6.66664C13.5003 2.99074 10.5096 0 6.83367 0ZM6.83367 10C4.9957 10 3.50035 8.50465 3.50035 6.66668C3.50035 4.82871 4.9957 3.33336 6.83367 3.33336C8.67164 3.33336 10.167 4.82871 10.167 6.66668C10.167 8.50465 8.67164 10 6.83367 10Z" fill="black"/>
</svg>
