<svg width="236" height="237" viewBox="0 0 236 237" fill="none" xmlns="http://www.w3.org/2000/svg">
<g clip-path="url(#clip0)">
<path d="M95.8301 71.043C93.9209 71.043 92.373 72.5903 92.373 74.5V78.1949C92.373 80.1045 93.9209 81.6519 95.8301 81.6519C97.7393 81.6519 99.2871 80.1045 99.2871 78.1949V74.5C99.2871 72.5903 97.7393 71.043 95.8301 71.043Z" fill="black"/>
<path d="M140.169 71.043C138.26 71.043 136.712 72.5903 136.712 74.5V78.1949C136.712 80.1045 138.26 81.6519 140.169 81.6519C142.078 81.6519 143.626 80.1045 143.626 78.1949V74.5C143.626 72.5903 142.078 71.043 140.169 71.043Z" fill="black"/>
<path d="M131.545 97.9362C130.204 96.5769 128.015 96.5626 126.656 97.9035C125.394 99.1485 122.37 100.602 118 100.602C113.629 100.602 110.605 99.1485 109.343 97.9035C107.984 96.5631 105.795 96.5765 104.455 97.9362C103.113 99.2951 103.128 101.484 104.487 102.825C107.464 105.762 112.515 107.516 118 107.516C123.484 107.516 128.535 105.762 131.512 102.825C132.871 101.484 132.886 99.2951 131.545 97.9362Z" fill="black"/>
<path d="M191.739 162.571L163.718 154.329L153.747 141.035C152.248 139.036 149.959 137.811 147.467 137.673C147.418 137.67 147.37 137.675 147.32 137.673V127.884C158.85 119.865 166.964 107.261 168.993 92.7364H171.049C177.786 92.7364 183.565 87.7302 184.205 81.3388C184.564 77.7569 183.392 74.18 180.99 71.5259C179.828 70.2418 178.424 69.2254 176.88 68.5151V48.6349H176.877C176.877 48.3551 176.846 48.0734 176.777 47.7964L167.791 11.8539C166.17 5.3685 160.369 0.838867 153.684 0.838867H82.3148C75.6298 0.838867 69.8285 5.3685 68.2074 11.8534L59.2218 47.7964C59.1527 48.0739 59.1214 48.3551 59.1214 48.6349H59.1186V68.6686C55.1402 70.5653 52.2368 74.3224 51.7938 78.7442C51.4352 82.3262 52.6069 85.9026 55.0084 88.5571C57.4117 91.213 60.843 92.736 64.4231 92.736H67.0034C69.0311 107.266 77.1454 119.871 88.6781 127.889V137.673C88.6292 137.675 88.5808 137.67 88.5315 137.673C86.0397 137.811 83.7506 139.036 82.2512 141.035L72.2802 154.329L44.2598 162.57C33.4287 165.756 25.8643 175.866 25.8643 187.156V233.382C25.8643 235.292 27.4121 236.839 29.3213 236.839C31.2305 236.839 32.7783 235.292 32.7783 233.382V187.156C32.7783 178.912 38.3017 171.53 46.211 169.204L74.3577 160.926C78.183 164.851 82.8057 168.175 87.9903 170.806H73.6607C63.6049 170.806 55.4237 178.988 55.4237 189.043C55.4237 190.953 56.9715 192.5 58.8808 192.5C60.79 192.5 62.3378 190.953 62.3378 189.043C62.3378 182.799 67.4173 177.72 73.6607 177.72H117.999C135.279 177.72 151.346 171.489 161.642 160.926L189.788 169.204C197.697 171.53 203.221 178.913 203.221 187.156V233.382C203.221 235.292 204.769 236.839 206.678 236.839C208.587 236.839 210.135 235.292 210.135 233.382V187.156C210.135 175.867 202.57 165.756 191.739 162.571ZM68.9693 37.3124H140.168C142.077 37.3124 143.625 35.765 143.625 33.8554C143.625 31.9457 142.077 30.3983 140.168 30.3983H70.6978L74.9145 13.5308C75.7654 10.1286 78.808 7.75293 82.3148 7.75293H153.684C157.19 7.75293 160.233 10.1286 161.084 13.5308L165.301 30.3983H154.948C153.039 30.3983 151.491 31.9457 151.491 33.8554C151.491 35.765 153.039 37.3124 154.948 37.3124H167.029L168.996 45.1778H67.0029L68.9693 37.3124ZM169.966 52.0924V67.3475H166.034C163.865 67.3475 162.101 65.5835 162.101 63.4148V52.0924H169.966ZM66.0322 52.0919H73.8976V63.4144C73.8976 65.5831 72.1332 67.3471 69.9649 67.3471H66.0322V52.0919ZM73.4224 85.5841C73.4224 83.6744 71.8746 82.127 69.9654 82.127C68.0562 82.127 66.5083 83.6744 66.5083 85.5841V85.8224H64.4231C62.7927 85.8224 61.2302 85.1282 60.135 83.9182C59.0255 82.6922 58.5065 81.0996 58.6738 79.4338C58.9642 76.5336 61.7215 74.2616 64.9508 74.2616H69.9658C75.947 74.2616 80.8126 69.3955 80.8126 63.4148V52.0924H155.187V63.4148C155.187 69.3959 160.053 74.2616 166.034 74.2616H171.576C173.206 74.2616 174.769 74.9558 175.863 76.1657C176.973 77.3914 177.492 78.9844 177.325 80.6502C177.035 83.5504 174.278 85.8224 171.049 85.8224H169.488V85.6205C169.488 83.7117 167.941 82.1644 166.033 82.1635C166.033 82.1635 166.032 82.1635 166.031 82.1635C164.123 82.1635 162.576 83.7094 162.574 85.6177C162.556 110.179 142.56 130.162 117.999 130.162C93.4193 130.161 73.4224 110.164 73.4224 85.5841ZM79.4695 156.267L87.782 145.183C88.0526 144.823 88.4642 144.602 88.9113 144.577C89.1952 144.563 89.6064 144.619 89.9456 144.981C93.9369 149.235 100.017 152.525 107.065 154.244C107.083 154.254 107.152 154.327 107.152 154.446L107.152 169.888C96.1139 167.986 86.3052 163.207 79.4695 156.267ZM121.933 154.446L121.932 170.687C119.332 170.845 116.667 170.845 114.067 170.687L114.066 154.446C114.066 151.142 111.861 148.297 108.704 147.527C103.388 146.23 98.667 143.822 95.5926 140.861V131.938C102.371 135.227 109.973 137.075 118 137.075C126.026 137.075 133.629 135.226 140.408 131.934V140.86C137.333 143.822 132.612 146.23 127.296 147.527C124.138 148.297 121.933 151.142 121.933 154.446ZM128.846 169.888L128.847 154.446C128.847 154.326 128.916 154.253 128.934 154.244C135.982 152.525 142.062 149.235 146.053 144.98C146.361 144.652 146.727 144.574 147.005 144.574C147.033 144.574 147.061 144.575 147.088 144.577C147.535 144.602 147.946 144.822 148.216 145.183L156.529 156.266C149.693 163.207 139.885 167.986 128.846 169.888Z" fill="black"/>
<path d="M99.5245 59.958H92.1348C90.2256 59.958 88.6777 61.5054 88.6777 63.415C88.6777 65.3247 90.2256 66.8721 92.1348 66.8721H99.5245C101.434 66.8721 102.982 65.3247 102.982 63.415C102.982 61.5054 101.434 59.958 99.5245 59.958Z" fill="black"/>
<path d="M143.864 59.958H136.475C134.565 59.958 133.018 61.5054 133.018 63.415C133.018 65.3247 134.565 66.8721 136.475 66.8721H143.864C145.774 66.8721 147.321 65.3247 147.321 63.415C147.321 61.5054 145.774 59.958 143.864 59.958Z" fill="black"/>
<path d="M58.8809 200.365C56.9717 200.365 55.4238 201.913 55.4238 203.822V233.382C55.4238 235.291 56.9717 236.839 58.8809 236.839C60.7901 236.839 62.3379 235.291 62.3379 233.382V203.822C62.3379 201.913 60.7901 200.365 58.8809 200.365Z" fill="black"/>
<path d="M73.6972 189.28H73.6603C71.7511 189.28 70.2217 190.828 70.2217 192.737C70.2217 194.647 71.7879 196.194 73.6972 196.194C75.6064 196.194 77.1542 194.647 77.1542 192.737C77.1542 190.828 75.6064 189.28 73.6972 189.28Z" fill="black"/>
<path d="M162.376 189.28H162.339C160.43 189.28 158.9 190.828 158.9 192.737C158.9 194.647 160.467 196.194 162.376 196.194C164.286 196.194 165.833 194.647 165.833 192.737C165.833 190.828 164.286 189.28 162.376 189.28Z" fill="black"/>
<path d="M162.376 207.755H162.339C160.43 207.755 158.9 209.303 158.9 211.212C158.9 213.122 160.467 214.669 162.376 214.669C164.286 214.669 165.833 213.122 165.833 211.212C165.833 209.303 164.286 207.755 162.376 207.755Z" fill="black"/>
<path d="M73.6972 207.755H73.6603C71.7511 207.755 70.2217 209.303 70.2217 211.212C70.2217 213.122 71.7879 214.669 73.6972 214.669C75.6064 214.669 77.1542 213.122 77.1542 211.212C77.1542 209.303 75.6064 207.755 73.6972 207.755Z" fill="black"/>
<path d="M162.376 226.229H162.339C160.43 226.229 158.9 227.777 158.9 229.687C158.9 231.596 160.467 233.144 162.376 233.144C164.286 233.144 165.833 231.596 165.833 229.687C165.833 227.777 164.286 226.229 162.376 226.229Z" fill="black"/>
<path d="M73.6972 226.229H73.6603C71.7511 226.229 70.2217 227.777 70.2217 229.687C70.2217 231.596 71.7879 233.144 73.6972 233.144C75.6064 233.144 77.1542 231.596 77.1542 229.687C77.1542 227.777 75.6064 226.229 73.6972 226.229Z" fill="black"/>
</g>
<defs>
<clipPath id="clip0">
<rect width="236" height="236" fill="white" transform="translate(0 0.838867)"/>
</clipPath>
</defs>
</svg>
