<svg width="236" height="237" viewBox="0 0 236 237" fill="none" xmlns="http://www.w3.org/2000/svg">
<path d="M176.238 136.815H176.4C177.133 136.815 177.837 136.524 178.355 136.005C178.874 135.487 179.165 134.783 179.165 134.05C179.165 133.316 178.874 132.613 178.355 132.094C177.837 131.576 177.133 131.284 176.4 131.284H176.238C175.505 131.284 174.801 131.576 174.283 132.094C173.764 132.613 173.473 133.316 173.473 134.05C173.473 134.783 173.764 135.487 174.283 136.005C174.801 136.524 175.505 136.815 176.238 136.815Z" fill="black"/>
<path d="M100.776 136.815H165.766C166.5 136.815 167.203 136.524 167.722 136.005C168.241 135.487 168.532 134.783 168.532 134.05C168.532 133.316 168.241 132.613 167.722 132.094C167.203 131.576 166.5 131.284 165.766 131.284H100.776C100.043 131.284 99.3394 131.576 98.8208 132.094C98.3021 132.613 98.0107 133.316 98.0107 134.05C98.0107 134.783 98.3021 135.487 98.8208 136.005C99.3394 136.524 100.043 136.815 100.776 136.815Z" fill="black"/>
<path d="M59.5996 136.815H90.2225C90.9559 136.815 91.6594 136.524 92.178 136.005C92.6967 135.487 92.9881 134.783 92.9881 134.05C92.9881 133.316 92.6967 132.613 92.178 132.094C91.6594 131.576 90.9559 131.284 90.2225 131.284H59.5996C58.8661 131.284 58.1627 131.576 57.644 132.094C57.1254 132.613 56.834 133.316 56.834 134.05C56.834 134.783 57.1254 135.487 57.644 136.005C58.1627 136.524 58.8661 136.815 59.5996 136.815Z" fill="black"/>
<path d="M51.1096 16.2801C51.617 16.2802 52.1145 16.1399 52.5473 15.8749C55.4712 14.0951 58.4937 12.4823 61.6001 11.0443C62.2658 10.7363 62.782 10.1763 63.0349 9.48773C63.2878 8.79913 63.2568 8.03825 62.9488 7.37249C62.6407 6.70672 62.0808 6.19061 61.3922 5.93768C60.7036 5.68474 59.9427 5.71572 59.2769 6.02378C55.9803 7.55004 52.7727 9.26178 49.6696 11.1508C49.1535 11.4643 48.7542 11.9382 48.5327 12.4999C48.3111 13.0617 48.2796 13.6806 48.4428 14.262C48.606 14.8434 48.955 15.3554 49.4366 15.7198C49.9181 16.0842 50.5057 16.281 51.1096 16.2801Z" fill="black"/>
<path d="M16.1217 51.3902C16.767 51.7389 17.5243 51.817 18.2272 51.6073C18.9301 51.3976 19.5208 50.9173 19.8696 50.272C25.4312 39.9655 32.9412 30.837 41.9826 23.3933C42.2627 23.1621 42.4945 22.878 42.6648 22.5572C42.8351 22.2364 42.9406 21.8852 42.9752 21.5237C43.0098 21.1621 42.9728 20.7973 42.8664 20.4501C42.76 20.1028 42.5862 19.7799 42.355 19.4998C42.1238 19.2197 41.8397 18.9879 41.5189 18.8175C41.1981 18.6472 40.8469 18.5418 40.4854 18.5072C40.1238 18.4726 39.759 18.5096 39.4117 18.616C39.0645 18.7224 38.7416 18.8962 38.4615 19.1274C28.8701 27.0244 20.9033 36.7085 15.0034 47.6423C14.6547 48.2876 14.5766 49.045 14.7863 49.7479C14.9961 50.4507 15.4764 51.0415 16.1217 51.3902Z" fill="black"/>
<path d="M230.93 226.237H226.32V148.784C226.32 148.756 226.317 148.729 226.316 148.702C226.315 148.675 226.32 148.648 226.32 148.62V119.161C226.319 118.806 226.245 118.454 226.105 118.128C225.964 117.801 225.759 117.507 225.502 117.261C225.244 117.016 224.94 116.825 224.607 116.7C224.275 116.575 223.92 116.519 223.565 116.534H213.025C213.709 111.876 214.053 107.174 214.055 102.466C214.055 49.5009 170.965 6.41064 118 6.41064C105.386 6.4098 92.8946 8.89376 81.2403 13.7207C69.5859 18.5476 58.9965 25.623 50.0768 34.5427C41.1571 43.4624 34.0817 54.0518 29.2548 65.7061C24.4279 77.3605 21.9439 89.8515 21.9448 102.466C21.9468 107.174 22.2909 111.876 22.9745 116.534H12.4352C12.08 116.519 11.7254 116.575 11.3925 116.7C11.0597 116.825 10.7555 117.016 10.4982 117.261C10.2409 117.507 10.0358 117.801 9.89515 118.128C9.7545 118.454 9.68122 118.806 9.67969 119.161V148.62C9.67969 148.648 9.68291 148.674 9.68384 148.702C9.68476 148.73 9.67969 148.756 9.67969 148.784V226.237H5.07031C4.33682 226.237 3.63338 226.529 3.11472 227.047C2.59607 227.566 2.30469 228.269 2.30469 229.003C2.30469 229.736 2.59607 230.44 3.11472 230.958C3.63338 231.477 4.33682 231.769 5.07031 231.769H230.93C231.663 231.769 232.367 231.477 232.885 230.958C233.404 230.44 233.695 229.736 233.695 229.003C233.695 228.269 233.404 227.566 232.885 227.047C232.367 226.529 231.663 226.237 230.93 226.237ZM208.524 102.466C208.524 107.176 208.16 111.88 207.436 116.534H173.312C173.773 111.922 174.009 107.203 174.009 102.466C174.014 96.8841 173.69 91.3069 173.038 85.7633C183.442 81.7218 193.36 76.5258 202.606 70.2731C206.528 80.5525 208.534 91.4635 208.524 102.466ZM200.429 65.0622C191.624 71.1157 182.171 76.1692 172.247 80.1288C170.08 66.7865 165.951 54.5556 160.078 43.8406C165.931 40.9878 171.473 37.5362 176.615 33.541C186.765 42.178 194.894 52.9385 200.429 65.0622ZM172.17 29.9816C167.526 33.5021 162.548 36.5589 157.307 39.1082C150.991 28.8505 142.621 20.011 132.722 13.1459C147.035 15.5006 160.568 21.2762 172.17 29.9816ZM120.766 12.4632C133.637 18.9924 144.264 28.9132 152.196 41.3917C142.201 45.4612 131.553 47.6918 120.766 47.9761V12.4632ZM120.766 53.5079C132.536 53.1676 144.143 50.6677 155.01 46.1329C160.857 56.6814 164.92 68.8211 166.958 82.1187C152.109 87.3548 136.509 90.1523 120.766 90.4027V53.5079ZM120.766 95.9339C136.742 95.6887 152.579 92.9171 167.689 87.7219C168.215 92.6189 168.477 97.5407 168.473 102.466C168.475 107.165 168.235 111.86 167.753 116.534H120.766V95.9339ZM69.0406 82.127C71.0747 68.8612 75.1204 56.7473 80.9434 46.2158C91.8383 50.7014 103.457 53.1723 115.234 53.5083V90.399C99.4941 90.1197 83.8996 87.3272 69.0406 82.127ZM115.234 95.9302V116.534H68.2473C67.2633 106.956 67.2841 97.3015 68.3096 87.7279C83.4286 92.8889 99.2611 95.6564 115.234 95.9302ZM83.7929 41.4092C91.7266 28.9224 102.357 18.9956 115.234 12.4632V47.9748C104.45 47.65 93.8064 45.4275 83.7929 41.4092ZM103.255 13.1606C93.3485 20.0361 84.9737 28.8893 78.6585 39.1621C73.3553 36.6443 68.3121 33.6119 63.6015 30.1084C75.2645 21.353 88.8668 15.5394 103.255 13.1606ZM59.1599 33.6806C64.3585 37.6704 69.9556 41.1121 75.862 43.9508C70.0169 54.6445 65.9058 66.8474 63.749 80.1542C53.8064 76.2231 44.3262 71.2105 35.4793 65.2069C40.9597 53.0853 49.0451 42.3211 59.1599 33.6806ZM33.3152 70.4174C42.6 76.6176 52.5425 81.7711 62.9613 85.7836C62.3116 91.3204 61.9884 96.8906 61.9933 102.465C61.9933 107.203 62.2298 111.921 62.6898 116.534H28.5638C27.84 111.879 27.4763 107.176 27.476 102.465C27.4691 91.5177 29.4475 80.6595 33.3152 70.4178V70.4174ZM29.5 226.237H15.2109V151.565H29.5V226.237ZM70.5234 226.237H35.0312V151.565H70.5234V226.237ZM84.8125 226.237H76.0547V151.565H84.8125V226.237ZM115.234 194.894H108.988C108.254 194.894 107.551 195.185 107.032 195.704C106.513 196.222 106.222 196.926 106.222 197.659C106.222 198.393 106.513 199.096 107.032 199.615C107.551 200.133 108.254 200.425 108.988 200.425H115.234V226.237H90.3438V166.315H115.234V194.894ZM145.656 226.237H120.766V200.425H127.012C127.746 200.425 128.449 200.133 128.968 199.615C129.487 199.096 129.778 198.393 129.778 197.659C129.778 196.926 129.487 196.222 128.968 195.704C128.449 195.185 127.746 194.894 127.012 194.894H120.766V166.315H145.656V226.237ZM145.656 160.784H90.3438V151.565H145.656V160.784ZM159.945 226.237H151.188V151.565H159.945V226.237ZM200.969 226.237H165.477V151.565H200.969V226.237ZM220.789 226.237H206.5V151.565H220.789V226.237ZM220.789 146.034H15.2109V122.065H220.789V146.034Z" fill="black"/>
</svg>
