<svg width="236" height="238" viewBox="0 0 236 238" fill="none" xmlns="http://www.w3.org/2000/svg">
<path d="M58.7695 15.2646H40.332C18.0936 15.2646 0 33.4459 0 55.7921V208.639C0 218.217 7.75311 226.008 17.2852 226.008H81.8164C91.3484 226.008 99.1016 218.217 99.1016 208.639V55.7921C99.1016 33.4459 81.008 15.2646 58.7695 15.2646ZM36.5527 22.4329C34.4821 37.79 22.4167 49.9138 7.13373 51.9945C8.87665 36.5072 21.1401 24.1843 36.5527 22.4329ZM6.91406 113.225C6.91406 106.893 8.28967 100.877 10.7546 95.4638L19.8437 108.46C18.9507 109.998 18.4375 111.783 18.4375 113.689V164.637C18.4375 166.222 18.794 167.726 19.426 169.072L8.87665 184.159C7.64328 182.444 6.91406 180.342 6.91406 178.069V113.225ZM28.8086 175.059H70.293C71.8738 175.059 73.3719 174.701 74.7133 174.062L84.546 188.122C83.6764 188.36 82.7617 188.491 81.8164 188.491H17.2852C16.3399 188.491 15.4252 188.36 14.5555 188.122L24.3883 174.062C25.7297 174.701 27.2277 175.059 28.8086 175.059ZM25.3516 164.637V113.689C25.3516 111.773 26.9018 110.215 28.8086 110.215H70.293C72.1997 110.215 73.75 111.773 73.75 113.689V164.637C73.75 166.553 72.1997 168.111 70.293 168.111H28.8086C26.9018 168.111 25.3516 166.553 25.3516 164.637ZM73.9661 103.944C72.8227 103.508 71.5858 103.267 70.293 103.267H28.8086C27.5158 103.267 26.2788 103.508 25.1355 103.944L14.5447 88.7985C22.2528 77.6752 35.0691 70.382 49.5508 70.382C64.0325 70.382 76.8487 77.6752 84.5568 88.7985L73.9661 103.944ZM92.1875 208.639C92.1875 214.385 87.5349 219.06 81.8164 219.06H17.2852C11.5667 219.06 6.91406 214.385 6.91406 208.639V191.955C9.80573 194.141 13.396 195.438 17.2852 195.438H81.8164C85.7056 195.438 89.2958 194.141 92.1875 191.955V208.639ZM92.1875 178.069C92.1875 180.342 91.4583 182.444 90.2249 184.158L79.6756 169.072C80.3076 167.726 80.6641 166.222 80.6641 164.637V113.689C80.6641 111.783 80.1509 109.998 79.2578 108.46L88.347 95.4638C90.8119 100.877 92.1875 106.893 92.1875 113.225V178.069ZM92.1875 87.8848C83.5467 73.2606 67.6696 63.4345 49.5508 63.4345C31.432 63.4345 15.5548 73.2606 6.91406 87.8848V59.0144C26.1996 56.941 41.4754 41.5912 43.5406 22.2122H56.942C57.9233 31.3653 61.8881 39.9249 68.316 46.6029C74.7457 53.2845 83.1272 57.5525 92.1875 58.8407V87.8848ZM63.9659 22.6211C78.6313 24.9315 90.1547 36.8618 91.939 51.7611C77.4789 49.134 66.0689 37.2472 63.9659 22.6211Z" fill="black"/>
<path d="M195.668 15.2646H177.23C154.992 15.2646 136.898 33.4459 136.898 55.7921V208.639C136.898 218.217 144.652 226.008 154.184 226.008H218.715C228.247 226.008 236 218.217 236 208.639V55.7921C236 33.4459 217.906 15.2646 195.668 15.2646ZM228.837 51.7611C214.377 49.134 202.967 37.2472 200.864 22.6211C215.53 24.9315 227.053 36.8618 228.837 51.7611ZM173.451 22.4329C171.381 37.79 159.315 49.9138 144.032 51.9945C145.775 36.5072 158.039 24.1843 173.451 22.4329ZM143.812 113.225C143.812 106.893 145.188 100.877 147.653 95.4638L156.742 108.46C155.849 109.998 155.336 111.783 155.336 113.689V164.637C155.336 166.222 155.692 167.726 156.324 169.072L145.775 184.159C144.542 182.444 143.812 180.342 143.812 178.069V113.225ZM165.707 175.059H207.191C208.772 175.059 210.27 174.701 211.612 174.062L221.444 188.122C220.575 188.36 219.66 188.491 218.715 188.491H154.184C153.238 188.491 152.324 188.36 151.454 188.122L161.287 174.062C162.628 174.701 164.126 175.059 165.707 175.059ZM162.25 164.637V113.689C162.25 111.773 163.8 110.215 165.707 110.215H207.191C209.098 110.215 210.648 111.773 210.648 113.689V164.637C210.648 166.553 209.098 168.111 207.191 168.111H165.707C163.8 168.111 162.25 166.553 162.25 164.637ZM210.865 103.944C209.721 103.508 208.484 103.267 207.191 103.267H165.707C164.414 103.267 163.177 103.508 162.034 103.944L151.443 88.7985C159.151 77.6752 171.967 70.382 186.449 70.382C200.931 70.382 213.747 77.6752 221.455 88.7985L210.865 103.944ZM229.086 208.639C229.086 214.385 224.433 219.06 218.715 219.06H154.184C148.465 219.06 143.812 214.385 143.812 208.639V191.955C146.704 194.141 150.294 195.438 154.184 195.438H218.715C222.604 195.438 226.194 194.141 229.086 191.955V208.639ZM229.086 178.069C229.086 180.342 228.357 182.444 227.123 184.158L216.574 169.072C217.206 167.726 217.562 166.222 217.562 164.637V113.689C217.562 111.783 217.049 109.998 216.156 108.46L225.245 95.4638C227.71 100.877 229.086 106.893 229.086 113.225V178.069ZM229.086 87.8848C220.445 73.2606 204.568 63.4345 186.449 63.4345C168.33 63.4345 152.453 73.2606 143.812 87.8848V59.0144C163.098 56.941 178.374 41.5912 180.439 22.2122H193.84C194.822 31.3653 198.786 39.9249 205.214 46.6029C211.644 53.2845 220.026 57.5525 229.086 58.8407V87.8848Z" fill="black"/>
<path d="M114.773 230.871H121.688V237.819H114.773V230.871Z" fill="black"/>
<path d="M114.773 14.5703H121.688V223.923H114.773V14.5703Z" fill="black"/>
<path d="M114.773 0.674805H121.688V7.62256H114.773V0.674805Z" fill="black"/>
<path d="M13.5977 205.165H20.5117V212.113H13.5977V205.165Z" fill="black"/>
<path d="M78.5898 205.165H85.5039V212.113H78.5898V205.165Z" fill="black"/>
<path d="M151.418 205.165H158.332V212.113H151.418V205.165Z" fill="black"/>
<path d="M216.41 205.165H223.324V212.113H216.41V205.165Z" fill="black"/>
</svg>
